<?xml version="1.0" encoding="UTF-8" standalone="no"?>
<!-- Created with Inkscape (http://www.inkscape.org/) -->

<svg
   version="1.1"
   id="svg2"
   width="2560"
   height="1440"
   viewBox="0 0 2560 1440"
   sodipodi:docname="ADQ-Logo-White-CMYK.ai"
   xmlns:inkscape="http://www.inkscape.org/namespaces/inkscape"
   xmlns:sodipodi="http://sodipodi.sourceforge.net/DTD/sodipodi-0.dtd"
   xmlns="http://www.w3.org/2000/svg"
   xmlns:svg="http://www.w3.org/2000/svg">
  <defs
     id="defs6">
    <clipPath
       clipPathUnits="userSpaceOnUse"
       id="clipPath28">
      <path
         d="M 0,1080 H 1920 V 0 H 0 Z"
         id="path26" />
    </clipPath>
  </defs>
  <sodipodi:namedview
     id="namedview4"
     pagecolor="#ffffff"
     bordercolor="#000000"
     borderopacity="0.25"
     inkscape:showpageshadow="2"
     inkscape:pageopacity="0.0"
     inkscape:pagecheckerboard="0"
     inkscape:deskcolor="#d1d1d1" />
  <g
     id="g8"
     inkscape:groupmode="layer"
     inkscape:label="ADQ-Logo-White-CMYK"
     transform="matrix(1.3333333,0,0,-1.3333333,0,1440)">
    <g
       id="g10"
       transform="translate(772.6738,525.0815)">
      <path
         d="M 0,0 -21.09,50.921 -42.181,0 Z m 9.689,-23.37 h -61.75 l -11.78,-28.501 h -31.54 l 59.28,133.002 H -5.7 L 53.771,-51.871 h -32.3 z"
         style="fill:#ffffff;fill-opacity:1;fill-rule:nonzero;stroke:none"
         id="path12" />
    </g>
    <g
       id="g14"
       transform="translate(844.1865,606.2124)">
      <path
         d="m 0,0 h 30.78 v -107.921 h 66.692 v -25.08 H 0 Z"
         style="fill:#ffffff;fill-opacity:1;fill-rule:nonzero;stroke:none"
         id="path16" />
    </g>
    <g
       id="g18"
       transform="translate(960.8252,606.2124)">
      <path
         d="m 0,0 h 30.78 v -107.921 h 66.692 v -25.08 H 0 Z"
         style="fill:#ffffff;fill-opacity:1;fill-rule:nonzero;stroke:none"
         id="path20" />
    </g>
    <g
       id="g22">
      <g
         id="g24"
         clip-path="url(#clipPath28)">
        <g
           id="g30"
           transform="translate(1136.3652,498.4814)">
          <path
             d="M 0,0 C 26.41,0 43.701,15.77 43.701,41.23 43.701,66.691 26.41,82.461 0,82.461 H -28.12 V 0 Z M -58.9,107.731 H 1.52 c 43.511,0 73.341,-26.22 73.341,-66.501 0,-40.28 -29.83,-66.501 -73.341,-66.501 H -58.9 Z"
             style="fill:#ffffff;fill-opacity:1;fill-rule:nonzero;stroke:none"
             id="path32" />
        </g>
        <g
           id="g34"
           transform="translate(1343.7676,539.7119)">
          <path
             d="M 0,0 C 0,25.27 -17.86,42.561 -41.61,42.561 -65.361,42.561 -83.221,25.27 -83.221,0 c 0,-25.271 17.86,-42.561 41.611,-42.561 C -17.86,-42.561 0,-25.271 0,0 m -114.381,0 c 0,39.521 30.779,68.781 72.771,68.781 41.799,0 72.77,-29.071 72.77,-68.781 0,-39.71 -30.971,-68.781 -72.77,-68.781 -41.992,0 -72.771,29.26 -72.771,68.781"
             style="fill:#ffffff;fill-opacity:1;fill-rule:nonzero;stroke:none"
             id="path36" />
        </g>
        <g
           id="g38"
           transform="translate(1465.8604,497.1514)">
          <path
             d="m 0,0 c 23.75,0 41.61,17.29 41.61,42.561 0,25.27 -17.86,42.56 -41.61,42.56 -23.751,0 -41.61,-17.29 -41.61,-42.56 C -41.61,17.29 -23.751,0 0,0 m 79.421,-38.19 c -8.74,-10.641 -21.28,-16.341 -35.91,-16.341 -19.761,0 -33.631,7.22 -54.151,28.881 -36.48,4.56 -62.131,32.11 -62.131,68.211 0,39.52 30.78,68.78 72.771,68.78 41.8,0 72.771,-29.07 72.771,-68.78 0,-31.161 -19.19,-55.861 -47.5,-64.981 6.459,-6.84 12.16,-9.31 18.81,-9.31 8.17,0 15.39,3.23 21.66,9.879 z"
             style="fill:#ffffff;fill-opacity:1;fill-rule:nonzero;stroke:none"
             id="path40" />
        </g>
        <path
           d="m 534.771,433.212 h -160 v 50 h 160 z"
           style="fill:#ffffff;fill-opacity:1;fill-rule:nonzero;stroke:none"
           id="path42" />
        <g
           id="g44"
           transform="translate(526.9407,596.7762)">
          <path
             d="m 0,0 80,-138.564 -43.301,-25 -80,138.564 z"
             style="fill:#ffffff;fill-opacity:1;fill-rule:nonzero;stroke:none"
             id="path46" />
        </g>
        <g
           id="g48"
           transform="translate(389.2077,508.2122)">
          <path
             d="m 0,0 80,138.564 43.301,-25 -80,-138.564 z"
             style="fill:#ffffff;fill-opacity:1;fill-rule:nonzero;stroke:none"
             id="path50" />
        </g>
      </g>
    </g>
  </g>
</svg>
